<svg xmlns="http://www.w3.org/2000/svg" viewBox="615.38 1178.2 849.02 702.2"><g transform="matrix(0.99,0,0,0.99,-15.47,-1.37)"><g id="bus2-f-03-12" transform="matrix(1,0,0,1,617,-1061.99)" xmlns="http://www.w3.org/2000/svg">
            <g transform="matrix(1.25,0,0,1.28,-1216.09,814.85)">
                <path d="M1091.5,1668.28L997.25,1613.87C992.06,1610.87 992.06,1603.37 997.25,1600.37L1358.21,1391.97L1513.4,1302.38L1539.11,1320.33L1636,1338C1643.06,1342.08 1666.6,1371.07 1621.99,1396.83L1581.9,1419.97L1139.4,1675.45C1131.5,1678.97 1110.16,1679.05 1091.5,1668.28Z" style="fill:rgb(76,122,141);fill-opacity:0.1;fill-rule:nonzero;"/>
                <g>
                    <path d="M1544.95,1303.11C1544.95,1303.11 1058.64,1583.54 1020.58,1605.49C1019.1,1606.34 1018.13,1607.85 1017.97,1609.52C1017.85,1610.9 1017.69,1612.62 1017.55,1614.2C1017.29,1617.01 1018.74,1619.7 1021.25,1621.07C1037.18,1629.76 1094.38,1660.96 1106.11,1667.36C1107.5,1668.12 1109.04,1668.6 1110.62,1668.77C1115.32,1669.29 1125.82,1670.43 1132.08,1671.12C1135.31,1671.47 1138.58,1670.78 1141.38,1669.16C1183.87,1644.5 1528.03,1444.84 1629.7,1385.86C1635.61,1382.43 1639.24,1376.2 1639.26,1369.46C1639.28,1362.71 1635.69,1356.46 1629.8,1353C1596.35,1333.33 1544.95,1303.11 1544.95,1303.11Z" style="fill:rgb(76,122,141);fill-opacity:0.15;fill-rule:nonzero;"/>
                </g>
                <path d="M1575.74,1392.56L1560.95,1385.85L1507.74,1422.16L1260.81,1575.58L1246.97,1563.34L1165.66,1602.88L1209,1485.28L1596.65,1311.71L1575.74,1392.56Z" style="fill:rgb(12,11,20);fill-rule:nonzero;"/>
                <g>
                    <path d="M1567.92,1374.85L1554.9,1367.34C1545.35,1361.89 1529.86,1370.83 1520.31,1387.31C1510.75,1403.79 1510.75,1421.57 1520.31,1427.01L1533.32,1434.53L1539.32,1424.18C1545,1420.45 1550.56,1414.52 1554.9,1407.04C1559.24,1399.55 1561.61,1391.8 1562,1385.06L1567.92,1374.85Z" style="fill:url(#_Linear81);fill-rule:nonzero;"/>
                    <g>
                        <path d="M1561.75,1385.49C1567.9,1389 1567.9,1400.43 1561.75,1411.04C1555.6,1421.64 1545.64,1427.39 1539.49,1423.89C1533.34,1420.38 1533.34,1408.95 1539.49,1398.34C1545.64,1387.74 1555.6,1381.99 1561.75,1385.49Z" style="fill:rgb(115,123,138);fill-rule:nonzero;"/>
                        <path d="M1559.74,1384.34C1565.89,1387.85 1565.89,1399.28 1559.74,1409.88C1553.6,1420.48 1543.63,1426.24 1537.48,1422.73C1531.34,1419.23 1531.34,1407.79 1537.48,1397.19C1543.63,1386.59 1553.6,1380.84 1559.74,1384.34Z" style="fill:rgb(161,173,194);fill-rule:nonzero;"/>
                        <path d="M1558.86,1385.86C1564.52,1389.09 1564.52,1399.62 1558.86,1409.38C1553.2,1419.14 1544.03,1424.44 1538.37,1421.21C1532.71,1417.98 1532.71,1407.46 1538.37,1397.7C1544.03,1387.93 1553.2,1382.64 1558.86,1385.86Z" style="fill:rgb(12,11,20);fill-rule:nonzero;"/>
                        <path d="M1562.67,1391.37L1560.97,1392.78C1559.66,1393.86 1558.32,1393.96 1557.64,1393.01L1557.14,1392.3C1556.47,1391.35 1556.63,1389.58 1557.53,1387.92L1558.7,1385.77C1556.92,1384.82 1554.82,1384.69 1552.59,1385.25L1552.06,1387.46C1551.65,1389.16 1550.46,1390.84 1549.12,1391.61L1548.11,1392.2C1546.77,1392.97 1545.58,1392.66 1545.17,1391.43L1544.64,1389.84C1542.41,1391.85 1540.31,1394.42 1538.53,1397.42L1539.7,1398.22C1540.6,1398.83 1540.76,1400.42 1540.09,1402.14L1539.58,1403.44C1538.91,1405.16 1537.57,1406.62 1536.26,1407.05L1534.56,1407.6C1533.98,1410.59 1533.98,1413.38 1534.56,1415.7L1536.26,1414.3C1537.57,1413.21 1538.91,1413.12 1539.58,1414.07L1540.09,1414.78C1540.76,1415.72 1540.6,1417.49 1539.7,1419.15L1538.53,1421.3C1540.31,1422.25 1542.41,1422.39 1544.64,1421.83L1545.17,1419.62C1545.58,1417.92 1546.77,1416.23 1548.11,1415.46L1549.12,1414.88C1550.46,1414.1 1551.65,1414.41 1552.06,1415.64L1552.59,1417.24C1554.82,1415.23 1556.92,1412.66 1558.7,1409.66L1557.53,1408.86C1556.63,1408.24 1556.47,1406.65 1557.14,1404.93L1557.64,1403.64C1558.32,1401.92 1559.66,1400.46 1560.97,1400.03L1562.67,1399.47C1563.25,1396.48 1563.25,1393.69 1562.67,1391.37Z" style="fill:rgb(115,123,138);fill-rule:nonzero;"/>
                        <path d="M1555.29,1394.32C1555.51,1394.24 1554.38,1393.59 1554.38,1393.59C1551.2,1391.77 1546.03,1394.75 1542.85,1400.25C1539.66,1405.74 1539.66,1411.67 1542.85,1413.49L1543.97,1414.13L1543.89,1413.88C1547.08,1414.65 1551.52,1411.76 1554.38,1406.83C1557.23,1401.92 1557.52,1396.68 1555.29,1394.32Z" style="fill:rgb(161,173,194);fill-rule:nonzero;"/>
                        <path d="M1553.2,1395.62C1555.74,1397.07 1555.74,1401.78 1553.2,1406.15C1550.67,1410.53 1546.56,1412.9 1544.02,1411.45C1541.49,1410.01 1541.49,1405.29 1544.02,1400.92C1546.56,1396.55 1550.67,1394.18 1553.2,1395.62Z" style="fill:rgb(115,123,138);fill-rule:nonzero;"/>
                        <path d="M1555.51,1394.24C1552.32,1392.42 1547.15,1395.4 1543.97,1400.9C1540.78,1406.39 1540.78,1412.32 1543.97,1414.13C1547.15,1415.95 1552.32,1412.97 1555.51,1407.47C1558.69,1401.98 1558.69,1396.05 1555.51,1394.24ZM1554.33,1406.8C1551.79,1411.17 1547.68,1413.55 1545.15,1412.1C1542.61,1410.66 1542.61,1405.94 1545.15,1401.57C1547.68,1397.2 1551.79,1394.83 1554.33,1396.27C1556.86,1397.71 1556.86,1402.43 1554.33,1406.8Z" style="fill:rgb(161,173,194);"/>
                        <path d="M1567.92,1374.85C1558.37,1369.4 1542.88,1378.35 1533.32,1394.83C1523.77,1411.31 1523.77,1429.08 1533.32,1434.53C1542.88,1439.97 1558.37,1431.03 1567.92,1414.55C1577.47,1398.07 1577.47,1380.3 1567.92,1374.85ZM1561.75,1411.04C1555.6,1421.64 1545.64,1427.39 1539.49,1423.89C1533.34,1420.38 1533.34,1408.95 1539.49,1398.34C1545.64,1387.74 1555.6,1381.99 1561.75,1385.49C1567.9,1389 1567.9,1400.43 1561.75,1411.04Z" style="fill:rgb(23,23,30);"/>
                        <path d="M1567.92,1374.85C1558.37,1369.4 1542.88,1378.35 1533.32,1394.83C1523.77,1411.31 1523.77,1429.08 1533.32,1434.53C1542.88,1439.97 1558.37,1431.03 1567.92,1414.55C1577.47,1398.07 1577.47,1380.3 1567.92,1374.85ZM1566.35,1413.65C1557.66,1428.63 1543.58,1436.76 1534.89,1431.81C1526.21,1426.86 1526.21,1410.7 1534.89,1395.72C1543.58,1380.74 1557.66,1372.62 1566.35,1377.57C1575.03,1382.52 1575.03,1398.67 1566.35,1413.65Z" style="fill:rgb(23,23,30);"/>
                    </g>
                </g>
                <g>
                    <path d="M1250.76,1557.96L1237.75,1550.45C1228.19,1545 1212.71,1553.94 1203.15,1570.42C1193.6,1586.9 1193.6,1604.67 1203.15,1610.12L1216.17,1617.63L1222.17,1607.29C1227.84,1603.56 1233.41,1597.63 1237.75,1590.15C1242.09,1582.66 1244.45,1574.91 1244.85,1568.17L1250.76,1557.96Z" style="fill:url(#_Linear82);fill-rule:nonzero;"/>
                    <g>
                        <path d="M1244.6,1568.6C1250.74,1572.11 1250.74,1583.54 1244.6,1594.14C1238.45,1604.75 1228.48,1610.5 1222.34,1607C1216.19,1603.49 1216.19,1592.06 1222.34,1581.45C1228.48,1570.85 1238.45,1565.1 1244.6,1568.6Z" style="fill:rgb(115,123,138);fill-rule:nonzero;"/>
                        <path d="M1242.59,1567.45C1248.73,1570.95 1248.73,1582.39 1242.59,1592.99C1236.44,1603.59 1226.48,1609.35 1220.33,1605.84C1214.18,1602.34 1214.18,1590.9 1220.33,1580.3C1226.48,1569.7 1236.44,1563.94 1242.59,1567.45Z" style="fill:rgb(161,173,194);fill-rule:nonzero;"/>
                        <path d="M1241.7,1568.97C1247.36,1572.2 1247.36,1582.73 1241.7,1592.49C1236.05,1602.25 1226.87,1607.55 1221.21,1604.32C1215.55,1601.09 1215.55,1590.57 1221.21,1580.81C1226.87,1571.04 1236.05,1565.75 1241.7,1568.97Z" style="fill:rgb(12,11,20);fill-rule:nonzero;"/>
                        <path d="M1245.52,1574.48L1243.82,1575.89C1242.51,1576.97 1241.16,1577.06 1240.49,1576.12L1239.98,1575.41C1239.31,1574.46 1239.47,1572.69 1240.37,1571.03L1241.54,1568.88C1239.77,1567.93 1237.66,1567.8 1235.43,1568.36L1234.9,1570.57C1234.49,1572.27 1233.31,1573.95 1231.96,1574.72L1230.95,1575.31C1229.61,1576.08 1228.42,1575.77 1228.02,1574.54L1227.49,1572.94C1225.26,1574.96 1223.15,1577.53 1221.38,1580.53L1222.54,1581.33C1223.45,1581.94 1223.6,1583.53 1222.93,1585.25L1222.43,1586.55C1221.76,1588.27 1220.41,1589.73 1219.1,1590.16L1217.4,1590.71C1216.82,1593.7 1216.82,1596.49 1217.4,1598.81L1219.1,1597.41C1220.41,1596.32 1221.76,1596.23 1222.43,1597.17L1222.93,1597.89C1223.6,1598.83 1223.45,1600.6 1222.54,1602.26L1221.38,1604.41C1223.15,1605.36 1225.26,1605.5 1227.49,1604.94L1228.02,1602.73C1228.42,1601.03 1229.61,1599.34 1230.95,1598.57L1231.96,1597.99C1233.31,1597.21 1234.49,1597.52 1234.9,1598.75L1235.43,1600.35C1237.66,1598.34 1239.77,1595.77 1241.54,1592.77L1240.37,1591.97C1239.47,1591.35 1239.31,1589.76 1239.98,1588.04L1240.49,1586.75C1241.16,1585.03 1242.51,1583.57 1243.82,1583.14L1245.52,1582.58C1246.1,1579.59 1246.1,1576.8 1245.52,1574.48Z" style="fill:rgb(115,123,138);fill-rule:nonzero;"/>
                        <path d="M1238.13,1577.43C1238.35,1577.35 1237.23,1576.7 1237.23,1576.7C1234.04,1574.88 1228.88,1577.86 1225.69,1583.36C1222.51,1588.85 1222.51,1594.78 1225.69,1596.6L1226.81,1597.24L1226.73,1596.99C1229.92,1597.76 1234.37,1594.87 1237.23,1589.93C1240.07,1585.03 1240.37,1579.79 1238.13,1577.43Z" style="fill:rgb(161,173,194);fill-rule:nonzero;"/>
                        <path d="M1236.05,1578.73C1238.58,1580.18 1238.58,1584.89 1236.05,1589.26C1233.51,1593.63 1229.4,1596.01 1226.87,1594.56C1224.34,1593.12 1224.34,1588.4 1226.87,1584.03C1229.4,1579.66 1233.51,1577.29 1236.05,1578.73Z" style="fill:rgb(115,123,138);fill-rule:nonzero;"/>
                        <path d="M1238.35,1577.35C1235.16,1575.53 1230,1578.51 1226.81,1584.01C1223.63,1589.5 1223.63,1595.43 1226.81,1597.24C1230,1599.06 1235.16,1596.08 1238.35,1590.58C1241.54,1585.09 1241.54,1579.16 1238.35,1577.35ZM1237.17,1589.91C1234.64,1594.28 1230.53,1596.66 1227.99,1595.21C1225.46,1593.77 1225.46,1589.05 1227.99,1584.68C1230.53,1580.31 1234.64,1577.93 1237.17,1579.38C1239.71,1580.82 1239.71,1585.54 1237.17,1589.91Z" style="fill:rgb(161,173,194);"/>
                        <path d="M1250.76,1557.96C1241.21,1552.51 1225.72,1561.46 1216.17,1577.94C1206.61,1594.41 1206.61,1612.19 1216.17,1617.63C1225.72,1623.08 1241.21,1614.14 1250.76,1597.66C1260.32,1581.18 1260.32,1563.41 1250.76,1557.96ZM1244.6,1594.14C1238.45,1604.75 1228.48,1610.5 1222.34,1607C1216.19,1603.49 1216.19,1592.06 1222.34,1581.45C1228.48,1570.85 1238.45,1565.1 1244.6,1568.6C1250.74,1572.11 1250.74,1583.54 1244.6,1594.14Z" style="fill:rgb(23,23,30);"/>
                        <path d="M1250.76,1557.96C1241.21,1552.51 1225.72,1561.46 1216.17,1577.94C1206.61,1594.41 1206.61,1612.19 1216.17,1617.63C1225.72,1623.08 1241.21,1614.14 1250.76,1597.66C1260.32,1581.18 1260.32,1563.41 1250.76,1557.96ZM1249.19,1596.76C1240.51,1611.74 1226.43,1619.87 1217.74,1614.92C1209.06,1609.97 1209.06,1593.81 1217.74,1578.83C1226.43,1563.85 1240.51,1555.72 1249.19,1560.68C1257.88,1565.63 1257.88,1581.79 1249.19,1596.76Z" style="fill:rgb(23,23,30);"/>
                    </g>
                </g>
                <g>
                    <g>
                        <g>
                            <path d="M990.58,1502.91L995.27,1500.12L995.27,1476.48C995.27,1473.83 996.56,1469.62 998.94,1467.92C1001.32,1466.23 1014.22,1461.06 1014.22,1461.06L1014.22,1453.25L1009.33,1450.13L992.31,1458.64C992.31,1458.64 985.51,1462.17 984.97,1469.06C984.42,1475.94 984.52,1499.85 984.52,1499.85C984.52,1499.85 985.87,1502.61 990.58,1502.91Z" style="fill:url(#_Linear83);fill-rule:nonzero;"/>
                            <path d="M995.27,1476.48C995.27,1473.83 996.56,1469.62 998.94,1467.92C1001.32,1466.23 1014.22,1461.06 1014.22,1461.06L1014.22,1453.25C1014.22,1453.25 1001.18,1460 996.74,1462.99C992.3,1465.98 990.58,1470.41 990.58,1477.03L990.58,1502.91L995.27,1500.12L995.27,1476.48Z" style="fill:rgb(12,11,20);fill-rule:nonzero;"/>
                        </g>
                        <path d="M995.55,1525.27L995.55,1580.11L998.78,1583.94L1113.74,1650.43L1120,1651.44L1143.59,1643.37L1206.33,1607.09L1206.33,1603.74C1206.33,1599.75 1206.99,1595.36 1208.33,1590.82C1209.64,1586.32 1211.63,1581.68 1214.25,1577.12C1224.93,1558.72 1242.12,1548.77 1252.76,1554.75C1258.06,1557.76 1260.72,1564.06 1260.81,1571.87L1260.81,1575.58L1521.25,1424.97L1521.25,1421.92C1521.25,1417.93 1521.92,1413.54 1523.24,1409C1524.57,1404.47 1526.57,1399.79 1529.23,1395.2C1529.54,1394.68 1529.85,1394.15 1530.17,1393.64C1540.5,1376.88 1556.33,1367.69 1566.7,1372.43C1567.07,1372.59 1567.41,1372.77 1567.76,1372.97C1572.99,1375.94 1575.64,1382.24 1575.73,1390.05C1575.74,1390.05 1575.74,1392.55 1575.74,1392.55L1591.83,1382.85L1651.93,1343.49L1655.35,1338.05L1655.35,1199.96C1655.35,1196.93 1652.33,1192.5 1652.33,1192.5L1644.87,1187.06C1644.87,1187.06 1625.3,1174.15 1600.71,1159.23C1576.11,1144.31 1537.55,1124.72 1537.55,1124.72L1533.51,1125.41C1533.51,1125.41 1048.41,1407.21 1036.31,1413.66C1024.21,1420.12 1016.42,1427.82 1016.42,1427.82L1011.71,1438.03C1007.01,1448.25 995.55,1525.27 995.55,1525.27Z" style="fill:rgb(189,209,220);fill-rule:nonzero;"/>
                        <g>
                            <path d="M1535.97,1125.63L1036.04,1413.81L1154.88,1478.63L1648.9,1192.03L1535.97,1125.63Z" style="fill:rgb(242,247,249);fill-rule:nonzero;"/>
                        </g>
                        <path d="M998.78,1583.94L995.55,1580.11L995.55,1551.13L1002.19,1555.61L1100.91,1612.88L1107.48,1616.37L1119.99,1614.95L1655.35,1295.27L1655.35,1338.05L1651.93,1343.49L1591.83,1382.85L1575.74,1392.55L1575.74,1390.05C1575.64,1382.24 1572.99,1375.94 1567.76,1372.97C1567.41,1372.77 1567.07,1372.59 1566.7,1372.43C1556.33,1367.69 1540.5,1376.88 1530.17,1393.64C1529.85,1394.15 1529.54,1394.68 1529.23,1395.2C1526.57,1399.79 1524.57,1404.47 1523.24,1409C1521.92,1413.54 1521.25,1417.93 1521.25,1421.92L1521.25,1424.97L1260.81,1575.58L1260.81,1571.87C1260.72,1564.06 1258.06,1557.76 1252.84,1554.79C1242.12,1548.77 1224.93,1558.72 1214.3,1577.03C1211.63,1581.68 1209.64,1586.32 1208.33,1590.82C1206.99,1595.36 1206.33,1599.75 1206.33,1603.74L1206.33,1607.09L1143.59,1643.37L1120,1651.44L1113.74,1650.43L998.78,1583.94Z" style="fill:rgb(162,183,197);fill-rule:nonzero;"/>
                        <path d="M999.66,1553.97L999.66,1565.66L995.55,1563.17L995.55,1549.51L999.66,1553.97Z" style="fill:rgb(189,209,220);fill-rule:nonzero;"/>
                        <path d="M1119.99,1631.86L1119.99,1614.95L1112.88,1616.37L1112.88,1633.09L1117.87,1633.09L1119.99,1631.86Z" style="fill:rgb(162,183,197);fill-rule:nonzero;"/>
                        <path d="M1575.44,1386.04C1575.62,1387.32 1575.71,1388.66 1575.73,1390.05C1575.74,1390.05 1575.74,1392.56 1575.74,1392.56L1591.83,1382.85L1651.93,1343.49L1653.57,1340.88L1575.44,1386.04Z" style="fill:rgb(12,11,20);fill-rule:nonzero;"/>
                        <path d="M1260.54,1568.01C1260.71,1569.25 1260.8,1570.54 1260.81,1571.87L1260.81,1575.58L1521.26,1424.97L1521.26,1421.92C1521.26,1420.39 1521.35,1418.81 1521.55,1417.18L1260.54,1568.01Z" style="fill:rgb(12,11,20);fill-rule:nonzero;"/>
                        <path d="M1119.76,1649.37L1120,1651.44L1143.59,1643.37L1206.33,1607.09L1206.33,1603.74C1206.33,1602.27 1206.42,1600.75 1206.6,1599.18L1119.76,1649.37Z" style="fill:rgb(12,11,20);fill-rule:nonzero;"/>
                        <path d="M1089.14,1617.36L1020.58,1576.63L1015.56,1570.67L1094.79,1617.36L1089.14,1617.36Z" style="fill:rgb(12,11,20);fill-rule:nonzero;"/>
                        <path d="M1127.59,1516.13C1127.59,1516.13 1139.02,1488.17 1154.88,1478.63C1170.74,1469.08 1648.9,1192.03 1648.9,1192.03L1652.33,1192.5C1652.33,1192.5 1655.35,1196.33 1655.35,1199.96L1155.55,1487.9C1155.55,1487.9 1143.18,1496.24 1136.73,1517.08C1130.76,1530.97 1119.99,1588.99 1119.99,1594.02L1119.99,1651.44L1113.74,1650.43C1113.74,1650.43 1112.46,1616.15 1112.46,1592.48C1112.46,1561.76 1127.59,1516.13 1127.59,1516.13Z" style="fill:url(#_Linear84);fill-rule:nonzero;"/>
                        <path d="M1645.94,1294.62L1156.62,1577.13L1156.62,1607.01L1124.6,1625.83L1124.6,1586.57C1124.6,1586.57 1126.78,1541.94 1136.73,1517.08C1146.68,1492.21 1155.55,1487.9 1155.55,1487.9L1645.94,1204.78L1645.94,1294.62Z" style="fill:rgb(12,11,20);fill-rule:nonzero;"/>
                        <path d="M1189.56,1613.53L1189.56,1484.68L1146.81,1510.09L1146.81,1639.14L1189.56,1613.53Z" style="fill:rgb(12,11,20);fill-rule:nonzero;"/>
                        <path d="M1644.87,1187.06L1652.33,1192.5L1648.9,1192.03C1648.9,1192.03 1542.35,1128.67 1533.51,1125.41L1536.34,1124.93C1536.52,1124.9 1536.69,1124.87 1536.85,1124.84L1537.54,1124.72C1537.55,1124.72 1537.28,1124.77 1537.31,1124.76C1537.55,1124.72 1644.87,1187.06 1644.87,1187.06Z" style="fill:rgb(239,239,239);fill-rule:nonzero;"/>
                        <path d="M1154.88,1478.63L1035.04,1413.27L1027.74,1417.41C1027.74,1417.41 1017.91,1424.56 1016.42,1427.82C1013.52,1434.1 995.55,1525.27 995.55,1525.27L1112.46,1592.48L1127.59,1516.13C1127.59,1516.13 1137.27,1492.74 1154.88,1478.63Z" style="fill:url(#_Linear85);fill-rule:nonzero;"/>
                        <path d="M1537.55,1124.72L1027.74,1417.41C1027.74,1417.41 1019.48,1425.09 1014.74,1435.78C1010,1446.47 995.55,1525.26 995.55,1525.26L1009.72,1444.12C1009.72,1444.12 1013.66,1426.59 1036.31,1413.66C1058.97,1400.73 1533.51,1125.41 1533.51,1125.41L1537.55,1124.72Z" style="fill:rgb(242,247,249);fill-rule:nonzero;"/>
                        <path d="M1022,1433.46L1119.59,1490.12L1119.59,1508.47L1022,1452.01L1022,1433.46Z" style="fill:rgb(242,247,249);fill-rule:nonzero;"/>
                        <path d="M1175.04,1457.66L1068.71,1395.42C1068.71,1395.42 1042.18,1410.71 1030.82,1417.67C1019.47,1424.63 1015.56,1430.56 1015.56,1430.56L1031.61,1454.84L1124.6,1502.42C1124.6,1502.42 1137.54,1478.22 1175.04,1457.66Z" style="fill:rgb(242,247,249);fill-rule:nonzero;"/>
                        <path d="M995.55,1563.17L1112.88,1633.09L1120.5,1633.09L1120.5,1651.26L1119.99,1651.44L1113.74,1650.43L998.78,1583.94L995.55,1580.11L995.55,1563.17Z" style="fill:rgb(162,183,197);fill-rule:nonzero;"/>
                        <path d="M995.55,1579.02L1112.88,1648.94L1120.5,1648.94L1120.5,1651.26L1119.99,1651.44L1113.74,1650.43L998.78,1583.94L995.55,1580.11L995.55,1579.02Z" style="fill:rgb(12,11,20);fill-rule:nonzero;"/>
                        <path d="M1180.02,1502.42L1180.02,1598.13L1153.67,1613.19L1153.67,1517.08L1180.02,1502.42Z" style="fill:rgb(24,30,46);fill-rule:nonzero;"/>
                        <path d="M1143.18,1524L1143.18,1580.06L1127.59,1588.32L1128.19,1576.63L1138.14,1526.44L1143.18,1524Z" style="fill:rgb(24,30,46);fill-rule:nonzero;"/>
                        <path d="M1194.53,1484.68L1194.53,1546.25L1640.23,1288.68L1640.23,1226.78L1194.53,1484.68Z" style="fill:rgb(24,30,46);fill-rule:nonzero;"/>
                        <path d="M1457.34,1458.06L1457.34,1330.62L1385.27,1370.75L1385.27,1500L1457.34,1458.06Z" style="fill:rgb(12,11,20);fill-rule:nonzero;"/>
                        <path d="M1445.64,1346.76L1445.64,1442.74C1445.64,1442.74 1428.17,1452.95 1428.44,1451.88C1428.71,1450.8 1428.44,1356.43 1428.44,1356.43L1445.64,1346.76Z" style="fill:rgb(24,30,46);fill-rule:nonzero;"/>
                        <path d="M1415.53,1363.69L1415.53,1460.21L1399.13,1469.35L1399.13,1372.57L1415.53,1363.69Z" style="fill:rgb(24,30,46);fill-rule:nonzero;"/>
                        <path d="M1256.91,1441.93L1256.91,1514.42L1248.1,1519.94L1248.1,1447.84L1256.91,1441.93Z" style="fill:rgb(12,11,20);fill-rule:nonzero;"/>
                        <path d="M1548.55,1274.39L1548.55,1346.88L1539.74,1352.4L1539.74,1280.31L1548.55,1274.39Z" style="fill:rgb(12,11,20);fill-rule:nonzero;"/>
                        <path d="M1394.08,1361.77L1394.08,1434.26L1385.27,1439.78L1385.27,1367.69L1394.08,1361.77Z" style="fill:rgb(12,11,20);fill-rule:nonzero;"/>
                        <path d="M1343.15,1390.69L1343.15,1463.18L1334.34,1468.7L1334.34,1396.61L1343.15,1390.69Z" style="fill:rgb(12,11,20);fill-rule:nonzero;"/>
                        <path d="M1459.02,1324.69L1459.02,1397.18L1450.21,1402.7L1450.21,1330.6L1459.02,1324.69Z" style="fill:rgb(12,11,20);fill-rule:nonzero;"/>
                        <path d="M1124.6,1512.91L1124.6,1484.68C1124.6,1484.68 1134.91,1473.39 1146.01,1468.14C1157.1,1462.9 1175.04,1457.66 1175.04,1457.66C1175.04,1457.66 1172.22,1460.35 1171.21,1462.23C1170.2,1464.11 1143.99,1481.45 1138.95,1486.9C1133.91,1492.34 1124.6,1512.91 1124.6,1512.91Z" style="fill:rgb(189,209,220);fill-rule:nonzero;"/>
                        <path d="M1018.51,1425.13C1014.59,1428.75 1011.58,1434.11 1009.59,1443.39C1007.61,1452.67 1002.15,1480.32 1000.82,1489.04C999.5,1497.77 995.79,1520.63 995.55,1525.26L998.81,1527.14L1020.97,1427.61L1018.51,1425.13Z" style="fill:url(#_Linear86);fill-rule:nonzero;"/>
                        <path d="M1022,1425.44L1124.6,1484.68L1124.6,1514.42L1012.12,1449.99L1020.24,1427.56L1022,1425.44Z" style="fill:rgb(12,11,20);fill-rule:nonzero;"/>
                        <path d="M996.19,1555.45L1009.7,1563.72L1020.58,1576.63L1010.29,1575.65L996.19,1564.96L996.19,1555.45Z" style="fill:rgb(12,11,20);fill-rule:nonzero;"/>
                        <path d="M1111.99,1599.48C1111.99,1599.48 1110.38,1605.39 1104.06,1601.63C1097.75,1597.87 1006.07,1545.17 1005.66,1544.77C1005.26,1544.36 998.81,1540.73 998.81,1527.69C998.81,1514.65 1007.95,1459.27 1012.12,1449.99C1026.5,1457.12 1124.6,1514.42 1124.6,1514.42C1124.6,1514.42 1119.36,1535.64 1113.91,1588.82C1113.48,1594.25 1111.99,1599.48 1111.99,1599.48Z" style="fill:rgb(12,11,20);fill-rule:nonzero;"/>
                        <path d="M1121.6,1515.36C1121.6,1515.36 1116.03,1548.3 1111.55,1593.41C1111.25,1596.42 1107.93,1598.12 1105.32,1596.59L1004.82,1537.91C1003.05,1536.88 1002.02,1534.93 1002.16,1532.88C1002.94,1522.02 1005.97,1486.55 1014.43,1453.58L1020.35,1456.95L1121.6,1515.36Z" style="fill:rgb(24,30,46);fill-rule:nonzero;"/>
                        <path d="M1056.33,1567.99L1105.32,1596.59C1107.93,1598.12 1111.24,1596.42 1111.55,1593.41C1116.03,1548.3 1121.6,1515.36 1121.6,1515.36L1070.94,1486.13C1066.09,1507.56 1060.58,1535.72 1056.33,1567.99Z" style="fill:rgb(20,19,28);fill-rule:nonzero;"/>
                        <g>
                            <path d="M1145.44,1517.89L1136.83,1517.89C1136.56,1517.89 1132.21,1521.02 1132.21,1521.02L1122.65,1526.5C1122.65,1526.5 1117.99,1530.21 1117.99,1536.01L1117.99,1567.8C1117.99,1567.8 1120.44,1571.6 1124.06,1571.15C1127.68,1570.69 1129.5,1569.07 1129.5,1567.07L1129.5,1539.54C1129.5,1536.91 1130.49,1535.37 1134.3,1533.11C1138.1,1530.84 1143.81,1528.04 1143.81,1528.04C1143.81,1528.04 1145.98,1527.4 1145.98,1524.5C1145.98,1521.61 1145.44,1517.89 1145.44,1517.89Z" style="fill:url(#_Linear87);fill-rule:nonzero;"/>
                            <path d="M1140.27,1523.78C1137.19,1525.41 1124.7,1530.75 1124.7,1539.18L1124.7,1571.05C1127.89,1570.5 1129.5,1568.94 1129.5,1567.07L1129.5,1539.54C1129.5,1536.91 1130.49,1535.37 1134.3,1533.11C1138.1,1530.84 1143.81,1528.04 1143.81,1528.04C1143.81,1528.04 1145.98,1527.4 1145.98,1524.5C1145.98,1521.61 1145.44,1517.89 1145.44,1517.89C1145.44,1521.51 1143.35,1522.15 1140.27,1523.78Z" style="fill:rgb(12,11,20);fill-rule:nonzero;"/>
                        </g>
                    </g>
                    <path d="M1038.42,1457.92L1098.29,1492.49L1098.29,1477.07L1038.42,1442.51L1038.42,1457.92Z" style="fill:rgb(24,30,46);fill-rule:nonzero;"/>
                    <path d="M1054.53,1463.08L1082.18,1479.04L1082.18,1471.92L1054.53,1455.95L1054.53,1463.08Z" style="fill:rgb(43,52,71);fill-rule:nonzero;"/>
                    <path d="M1020.32,1577.62L1089.76,1618.87L1093.91,1624.31L1013.8,1577.1L1020.32,1577.62Z" style="fill:rgb(12,11,20);fill-rule:nonzero;"/>
                    <path d="M1112.88,1615.76L1112.88,1633.09L1106.58,1629.96L1106.58,1616.3L1112.88,1615.76Z" style="fill:rgb(162,183,197);fill-rule:nonzero;"/>
                    <path d="M1100.84,1617.36L1112.46,1623.17L1112.46,1632.88L1095.86,1626.11L1089.14,1617.36L1100.84,1617.36Z" style="fill:rgb(12,11,20);fill-rule:nonzero;"/>
                    <g>
                        <path d="M1301.54,1358.44C1302.63,1358.44 1303.71,1358.17 1304.68,1357.67L1387.47,1309.87C1387.19,1309.45 1386.75,1308.96 1386.27,1308.69L1334.21,1278.63C1333.04,1277.96 1331.76,1277.59 1330.59,1277.59C1329.76,1277.59 1329.02,1277.77 1328.39,1278.14C1317.9,1284.19 1306.24,1290.93 1294.95,1297.46C1273.43,1309.91 1253.11,1321.66 1244.87,1326.36C1244.83,1326.38 1244.75,1326.42 1244.75,1326.56C1244.75,1326.7 1244.84,1326.75 1244.87,1326.78L1298.13,1357.53C1299.17,1358.12 1300.34,1358.44 1301.54,1358.44Z" style="fill:rgb(43,52,71);fill-rule:nonzero;"/>
                        <path d="M1330.59,1279.8C1331.36,1279.8 1332.28,1280.08 1333.1,1280.55L1383.46,1309.62L1303.62,1355.72C1302.97,1356.05 1302.26,1356.22 1301.54,1356.22C1300.73,1356.22 1299.94,1356.01 1299.24,1355.6L1248.96,1326.57C1258.5,1321.11 1276.78,1310.53 1296.02,1299.41C1307.33,1292.87 1319,1286.12 1329.5,1280.06C1329.79,1279.89 1330.16,1279.8 1330.59,1279.8ZM1330.59,1275.37C1329.44,1275.37 1328.3,1275.63 1327.28,1276.21C1296.75,1293.84 1256.32,1317.28 1243.77,1324.43C1242.12,1325.37 1242.12,1327.75 1243.76,1328.7L1297.03,1359.45C1298.42,1360.25 1299.98,1360.66 1301.54,1360.66C1302.98,1360.66 1304.43,1360.31 1305.75,1359.61L1389.7,1311.14C1390.66,1310.24 1389.06,1307.73 1387.38,1306.77L1335.32,1276.71C1333.88,1275.88 1332.22,1275.37 1330.59,1275.37Z" style="fill:rgb(12,11,20);"/>
                    </g>
                </g>
                <path d="M1099.2,1620.81C1099.26,1620.81 1099.44,1620.82 1099.72,1620.98C1100.69,1621.55 1101.55,1623.02 1101.55,1624.14C1101.55,1624.16 1101.54,1624.71 1101.35,1624.71C1101.28,1624.71 1101.11,1624.69 1100.83,1624.53C1099.86,1623.97 1099,1622.5 1099,1621.38C1099,1621.36 1099,1620.81 1099.2,1620.81ZM1099.2,1619.69C1098.42,1619.69 1097.89,1620.31 1097.89,1621.38C1097.89,1622.89 1098.95,1624.74 1100.27,1625.5C1100.66,1625.72 1101.02,1625.83 1101.35,1625.83C1102.13,1625.83 1102.66,1625.21 1102.66,1624.14C1102.66,1622.62 1101.59,1620.78 1100.27,1620.02C1099.89,1619.8 1099.52,1619.69 1099.2,1619.69Z" style="fill:rgb(239,239,239);"/>
                <path d="M1105.87,1623.45C1105.93,1623.45 1106.1,1623.47 1106.38,1623.63C1107.36,1624.19 1108.21,1625.66 1108.21,1626.78C1108.21,1626.8 1108.21,1627.35 1108.01,1627.35C1107.95,1627.35 1107.78,1627.34 1107.5,1627.18C1106.52,1626.61 1105.67,1625.14 1105.67,1624.02C1105.67,1624 1105.67,1623.45 1105.87,1623.45ZM1105.87,1622.33C1105.09,1622.33 1104.55,1622.95 1104.55,1624.02C1104.55,1625.54 1105.62,1627.38 1106.94,1628.14C1107.32,1628.37 1107.69,1628.47 1108.01,1628.47C1108.79,1628.47 1109.33,1627.85 1109.33,1626.78C1109.33,1625.27 1108.26,1623.42 1106.94,1622.66C1106.55,1622.44 1106.19,1622.33 1105.87,1622.33Z" style="fill:rgb(239,239,239);"/>
                <path d="M1001.08,1561.9C1001.14,1561.9 1001.31,1561.91 1001.59,1562.08C1002.57,1562.64 1003.42,1564.11 1003.42,1565.23C1003.42,1565.25 1003.42,1565.8 1003.22,1565.8C1003.16,1565.8 1002.99,1565.78 1002.71,1565.62C1001.73,1565.06 1000.88,1563.59 1000.88,1562.47C1000.88,1562.45 1000.88,1561.9 1001.08,1561.9ZM1001.08,1560.78C1000.3,1560.78 999.76,1561.4 999.76,1562.47C999.76,1563.98 1000.83,1565.83 1002.15,1566.59C1002.53,1566.81 1002.9,1566.92 1003.22,1566.92C1004,1566.92 1004.54,1566.3 1004.54,1565.23C1004.54,1563.71 1003.47,1561.87 1002.15,1561.11C1001.76,1560.89 1001.4,1560.78 1001.08,1560.78Z" style="fill:rgb(239,239,239);"/>
                <path d="M1007.31,1567.16C1007.38,1567.16 1007.55,1567.17 1007.83,1567.34C1008.8,1567.9 1009.66,1569.37 1009.66,1570.49C1009.66,1570.51 1009.65,1571.06 1009.46,1571.06C1009.39,1571.06 1009.22,1571.04 1008.94,1570.88C1007.97,1570.32 1007.11,1568.85 1007.11,1567.73C1007.11,1567.71 1007.12,1567.16 1007.31,1567.16ZM1007.31,1566.04C1006.53,1566.04 1006,1566.66 1006,1567.73C1006,1569.24 1007.07,1571.09 1008.38,1571.85C1008.77,1572.07 1009.13,1572.18 1009.46,1572.18C1010.24,1572.18 1010.77,1571.56 1010.77,1570.49C1010.77,1568.97 1009.7,1567.13 1008.38,1566.37C1008,1566.15 1007.63,1566.04 1007.31,1566.04Z" style="fill:rgb(239,239,239);"/>
            </g>
        </g></g><defs><linearGradient id="_Linear81" x1="0" y1="0" x2="1" y2="0.01" gradientUnits="userSpaceOnUse" gradientTransform="matrix(-50.15,10.87,-10.87,-50.15,1539.35,1438.01)" xmlns="http://www.w3.org/2000/svg"><stop offset="0" style="stop-color:rgb(12,11,20);stop-opacity:1"/><stop offset="0.41" style="stop-color:rgb(12,11,20);stop-opacity:1"/><stop offset="0.59" style="stop-color:rgb(30,29,37);stop-opacity:1"/><stop offset="0.71" style="stop-color:rgb(48,47,54);stop-opacity:1"/><stop offset="1" style="stop-color:rgb(48,47,54);stop-opacity:1"/></linearGradient><linearGradient id="_Linear82" x1="0" y1="0" x2="1" y2="0.01" gradientUnits="userSpaceOnUse" gradientTransform="matrix(-50.15,10.87,-10.87,-50.15,1222.2,1621.12)" xmlns="http://www.w3.org/2000/svg"><stop offset="0" style="stop-color:rgb(12,11,20);stop-opacity:1"/><stop offset="0.41" style="stop-color:rgb(12,11,20);stop-opacity:1"/><stop offset="0.59" style="stop-color:rgb(30,29,37);stop-opacity:1"/><stop offset="0.71" style="stop-color:rgb(48,47,54);stop-opacity:1"/><stop offset="1" style="stop-color:rgb(48,47,54);stop-opacity:1"/></linearGradient><linearGradient id="_Linear83" x1="0" y1="0" x2="1" y2="0.01" gradientUnits="userSpaceOnUse" gradientTransform="matrix(37.6,-10.69,10.69,37.6,966.89,1490.43)" xmlns="http://www.w3.org/2000/svg"><stop offset="0" style="stop-color:rgb(12,11,20);stop-opacity:1"/><stop offset="0.41" style="stop-color:rgb(12,11,20);stop-opacity:1"/><stop offset="0.59" style="stop-color:rgb(30,29,37);stop-opacity:1"/><stop offset="0.71" style="stop-color:rgb(48,47,54);stop-opacity:1"/><stop offset="1" style="stop-color:rgb(48,47,54);stop-opacity:1"/></linearGradient><linearGradient id="_Linear84" x1="0" y1="0" x2="1" y2="0.01" gradientUnits="userSpaceOnUse" gradientTransform="matrix(-396.75,155.38,-155.38,-396.75,1326.62,1773.33)" xmlns="http://www.w3.org/2000/svg"><stop offset="0" style="stop-color:rgb(189,209,220);stop-opacity:1"/><stop offset="0.13" style="stop-color:rgb(189,209,220);stop-opacity:1"/><stop offset="0.22" style="stop-color:rgb(203,219,228);stop-opacity:1"/><stop offset="0.25" style="stop-color:rgb(217,230,237);stop-opacity:1"/><stop offset="1" style="stop-color:rgb(217,230,237);stop-opacity:1"/></linearGradient><linearGradient id="_Linear85" x1="0" y1="0" x2="1" y2="0" gradientUnits="userSpaceOnUse" gradientTransform="matrix(-157.39,-21.55,21.55,-157.39,1114.07,1593.69)" xmlns="http://www.w3.org/2000/svg"><stop offset="0" style="stop-color:rgb(242,247,249);stop-opacity:1"/><stop offset="1" style="stop-color:rgb(242,247,249);stop-opacity:1"/></linearGradient><linearGradient id="_Linear86" x1="0" y1="0" x2="1" y2="0.01" gradientUnits="userSpaceOnUse" gradientTransform="matrix(54.2,-25.41,25.41,54.2,966.31,1508.38)" xmlns="http://www.w3.org/2000/svg"><stop offset="0" style="stop-color:rgb(242,247,249);stop-opacity:1"/><stop offset="1" style="stop-color:rgb(242,247,249);stop-opacity:1"/></linearGradient><linearGradient id="_Linear87" x1="0" y1="0" x2="1" y2="0.01" gradientUnits="userSpaceOnUse" gradientTransform="matrix(39.5,-10.58,10.58,39.5,1099.54,1558.16)" xmlns="http://www.w3.org/2000/svg"><stop offset="0" style="stop-color:rgb(12,11,20);stop-opacity:1"/><stop offset="0.41" style="stop-color:rgb(12,11,20);stop-opacity:1"/><stop offset="0.59" style="stop-color:rgb(30,29,37);stop-opacity:1"/><stop offset="0.71" style="stop-color:rgb(48,47,54);stop-opacity:1"/><stop offset="1" style="stop-color:rgb(48,47,54);stop-opacity:1"/></linearGradient></defs></svg>